<svg xmlns="http://www.w3.org/2000/svg" width="82.209" height="44.584" viewBox="0 0 82.209 44.584">
  <g id="Group_28" data-name="Group 28" transform="translate(-1864.563 -2378.374)">
    <g id="Group_25" data-name="Group 25">
      <g id="Group_24" data-name="Group 24">
        <path id="Path_21" data-name="Path 21" d="M1898.206,2421.479a32.224,32.224,0,0,1-1.719-4.142l-3.489-9.759h-.556l-4.5,11.739a15.234,15.234,0,0,1-.86,2.048,2.186,2.186,0,0,1-.859.864,2.83,2.83,0,0,1-1.083.274v.135h4.774v-.135a3.952,3.952,0,0,1-.986-.207,1.221,1.221,0,0,1-.86-1.137,4.754,4.754,0,0,1,.405-1.795l.751-2.029a13.119,13.119,0,0,1,3.888-.206,1.983,1.983,0,0,1,1.1,1.182l.109.328v0h0l.166.495a7.092,7.092,0,0,1,.48,1.98,1.119,1.119,0,0,1-.834,1.18,4.063,4.063,0,0,1-.935.207v.135h6.977v-.114a3.377,3.377,0,0,1-.783-.135A1.875,1.875,0,0,1,1898.206,2421.479Zm-8.913-4.33,2.34-6.318h.076l1.918,5.727Z"/>
        <path id="Path_22" data-name="Path 22" d="M1924.461,2422.183a5.643,5.643,0,0,1-2.882-.7c-1.517-1.045-2.731-2.844-2.731-6.325a8.823,8.823,0,0,1,1.618-5.735,4.216,4.216,0,0,1,3.338-1.593c3.084,0,4.7,2.162,5.663,5.668h.278v-5.44h-.2l-.43.889h-.076c-.708-.754-2.933-1.551-5.158-1.551-3.994,0-7.761,2.55-7.761,7.762s3.64,7.8,7.635,7.8a6.282,6.282,0,0,0,6.219-5.234l-.252-.067C1928.658,2421.458,1926.382,2422.183,1924.461,2422.183Z"/>
        <path id="Path_23" data-name="Path 23" d="M1939.086,2407.392c-4.627,0-7.686,3.232-7.686,7.808a7.686,7.686,0,1,0,15.372,0C1946.772,2410.624,1943.713,2407.392,1939.086,2407.392Zm2.326,14.588a3.844,3.844,0,0,1-2.326.615,3.952,3.952,0,0,1-2.326-.615c-1.517-1.091-2.478-2.823-2.478-6.78,0-3.982.961-5.76,2.478-6.826a3.777,3.777,0,0,1,2.326-.615,3.86,3.86,0,0,1,2.326.615c1.492,1.066,2.478,2.844,2.478,6.826C1943.89,2419.157,1942.929,2420.91,1941.412,2421.98Z"/>
        <path id="Path_24" data-name="Path 24" d="M1914.334,2421.342l-2.69-4.162a4.485,4.485,0,0,0-2.981-1.115c.784-.047,1.4-.114,1.4-.114a8.242,8.242,0,0,0,2.351-.662c1.055-.544,1.889-1.674,1.82-3.822-.076-2.392-2.351-3.775-5.663-3.775h-7.205v.113a4.662,4.662,0,0,1,.783.135,1.624,1.624,0,0,1,1.138.978,14.516,14.516,0,0,1,.379,4.049v4.37a14.688,14.688,0,0,1-.379,4.074,1.643,1.643,0,0,1-1.138,1,4.143,4.143,0,0,1-.783.114v.114h7.281v-.114a6.171,6.171,0,0,1-.961-.114,1.641,1.641,0,0,1-1.137-1,14.682,14.682,0,0,1-.38-4.074v-1.226h.544a2.814,2.814,0,0,1,1.2.3,4.175,4.175,0,0,1,.948.886l2.507,3.892a3.117,3.117,0,0,0,2.616,1.45h2.916v-.148a4.431,4.431,0,0,1-1.452-.213A2.315,2.315,0,0,1,1914.334,2421.342Zm-8.164-10.625a4.11,4.11,0,0,1,.3-2.094,1.83,1.83,0,0,1,1.618-.569h.126c2.528,0,3.236,1.5,3.236,3.506,0,2.885-1.871,4.117-3.817,4.117h-1.467Z"/>
        <path id="Path_25" data-name="Path 25" d="M1879.839,2407.7h-.634l-.215.514-4.492,11.124h-.1l-4.753-11.647-2.922.028h-2.159v.141a2.718,2.718,0,0,1,1.713.5,2.05,2.05,0,0,1,.674,1.377v10.9a2.158,2.158,0,0,1-.674,1.441,2.667,2.667,0,0,1-1.7.5v.127h2v0h3.253v-.123a2.714,2.714,0,0,1-1.713-.5,2.142,2.142,0,0,1-.674-1.434v-11.281l.13.3,5.41,13.063h.683l5.208-13.063h.094l.007,10.994a2.158,2.158,0,0,1-.674,1.441,2.394,2.394,0,0,1-1.576.5v.126h3.982v0h3.116v-.123a2.409,2.409,0,0,1-1.576-.5,2.153,2.153,0,0,1-.674-1.44v-10.893a2.153,2.153,0,0,1,.674-1.44,2.412,2.412,0,0,1,1.576-.505v-.123h-3.982Z"/>
      </g>
    </g>
    <g id="Group_27" data-name="Group 27">
      <g id="Group_26" data-name="Group 26">
        <path id="Path_26" data-name="Path 26" d="M1905.3,2379.259a8.662,8.662,0,0,0-3.742-.885h-8.44v.122a2.422,2.422,0,0,1,1.576.5,2.138,2.138,0,0,1,.674,1.433v10.833a2.139,2.139,0,0,1-.674,1.433,2.425,2.425,0,0,1-1.576.5v.122h8.44a8.232,8.232,0,0,0,2.574-.417l-.307-.737a4.561,4.561,0,0,1-2.3.767c-.046,0-.729,0-1.449,0a1.749,1.749,0,0,1-1.749-1.745v-10.665a1.75,1.75,0,0,1,1.749-1.748h1.146a4.62,4.62,0,0,1,3.067,1.095c1.29,1.117,2.175,3.093,2.175,5.984,0,.324-.013.64-.034.939l1.437,3.472a7.51,7.51,0,0,0,1.277-4.411A6.916,6.916,0,0,0,1905.3,2379.259Z"/>
      </g>
      <path id="Path_27" data-name="Path 27" d="M1901.168,2395.851a2.158,2.158,0,0,1-.674,1.441,2.665,2.665,0,0,1-1.7.5v.127h2v0h3.253v-.123a2.715,2.715,0,0,1-1.713-.5,2.156,2.156,0,0,1-.674-1.441Z"/>
      <rect id="Rectangle_18" data-name="Rectangle 18" width="0.491" height="0.07" transform="translate(1901.168 2395.79)"/>
      <path id="Path_28" data-name="Path 28" d="M1916.463,2383.532a2.413,2.413,0,0,1,1.576-.5v-.122h-4.616l-.215.514-4.492,11.124h-.1l-4.753-11.647-2.922.028h-2.159v.141a4.8,4.8,0,0,1,1.731.384,2.663,2.663,0,0,1,1.194,1.234l.083.189,5.41,13.063h.683l5.208-13.063h.094l.007,10.994a2.157,2.157,0,0,1-.674,1.441,2.4,2.4,0,0,1-1.576.5v.126h3.982v0h3.116v-.123a2.408,2.408,0,0,1-1.576-.5,2.153,2.153,0,0,1-.674-1.44v-10.893A2.154,2.154,0,0,1,1916.463,2383.532Z"/>
    </g>
  </g>
</svg>
