<svg xmlns="http://www.w3.org/2000/svg" width="78.457" height="52.875" viewBox="0 0 78.457 52.875">
  <g id="Group_22" data-name="Group 22" transform="translate(-1866.439 -2075.285)">
    <path id="Path_2" data-name="Path 2" d="M1940.243,2075.286H1871.09a4.655,4.655,0,0,0-4.651,4.658v43.575a4.649,4.649,0,0,0,4.37,4.639l.043,0h69.633l.04,0a4.651,4.651,0,0,0,4.371-4.639v-43.575A4.656,4.656,0,0,0,1940.243,2075.286Zm.2,51.473H1870.9a3.252,3.252,0,0,1-3.035-2.9h75.615A3.252,3.252,0,0,1,1940.441,2126.759Zm3.051-3.6h-75.651v-2.9h75.651Zm0-3.6h-75.651V2116.6h75.651Zm0-3.654h-75.651v-35.957a3.25,3.25,0,0,1,3.249-3.253h69.153a3.249,3.249,0,0,1,3.249,3.253Z" fill="#1b3534"/>
    <g id="Group_21" data-name="Group 21">
      <path id="Path_3" data-name="Path 3" d="M1895.887,2095.566c0-2.145-1.13-3.4-2.028-3.4a1.525,1.525,0,0,0-1.226.533,4,4,0,0,0-.84,2.92,4.535,4.535,0,0,0,.607,2.708,1.633,1.633,0,0,0,1.539.842c1.286,0,1.948-1.619,1.948-3.608m1.034-3.02a4.214,4.214,0,0,1,1.346,3.078,4.48,4.48,0,0,1-1.21,2.964,4.319,4.319,0,0,1-3.273,1.4,3.818,3.818,0,0,1-3.159-1.4,4.1,4.1,0,0,1-1.052-3.022,4.358,4.358,0,0,1,1.635-3.235,4.22,4.22,0,0,1,2.768-.936,4.137,4.137,0,0,1,2.945,1.151" fill="#1b3534"/>
      <path id="Path_4" data-name="Path 4" d="M1918.587,2094.125c.409,0,.644-.116.644-.273,0-.584-.2-1.735-1.208-1.735-.956,0-1.542.7-1.795,2.008h2.359m-2.416,1.306a2.938,2.938,0,0,0,2.533,3.158,2.651,2.651,0,0,0,2.358-1.132c.079-.136.157-.136.237-.1l.288.175c.1.057.137.137,0,.389a3.856,3.856,0,0,1-3.545,2.067,3.4,3.4,0,0,1-2.807-1.049,4.428,4.428,0,0,1-1.093-3.218,4.053,4.053,0,0,1,.957-2.887,3.685,3.685,0,0,1,3.391-1.442c2.222,0,2.945,2.32,2.945,3.121,0,.292-.2.312-.549.312h-4.715Z" fill="#1b3534"/>
      <path id="Path_5" data-name="Path 5" d="M1923.749,2094.749c0-.9-.154-1.208-.74-1.52l-.351-.2c-.114-.041-.152-.078-.152-.159v-.116c0-.075.038-.115.152-.174l2.359-1.112a.94.94,0,0,1,.312-.078c.118,0,.155.119.176.236l.175,1.4h.079a3.022,3.022,0,0,1,2.337-1.757.954.954,0,0,1,1.014.976,1.13,1.13,0,0,1-1.053,1.053,1.535,1.535,0,0,1-.664-.154.877.877,0,0,0-.544-.159,1.025,1.025,0,0,0-.818.567,2.226,2.226,0,0,0-.235.956v3.76c0,.624.157.82.547.82h.86c.114,0,.153.037.153.133v.451c0,.1-.039.136-.135.136-.138,0-1-.058-2.419-.058-1.363,0-2.123.058-2.279.058-.1,0-.138-.039-.138-.136v-.426c0-.121.04-.158.174-.158h.685a.458.458,0,0,0,.505-.528v-3.819" fill="#1b3534"/>
      <path id="Path_6" data-name="Path 6" d="M1929.714,2097.3c-.02-.078,0-.138.056-.158l.371-.114c.078-.022.136-.022.176.056l.642,1.093a1.743,1.743,0,0,0,1.678,1.048,1.253,1.253,0,0,0,1.383-1.187c0-.78-.508-1.133-1.87-1.52-1.325-.389-2.38-1.052-2.38-2.437a2.372,2.372,0,0,1,.994-2.046,3.231,3.231,0,0,1,2.027-.644,3.785,3.785,0,0,1,1.893.431c.291.154.349.233.367.345l.258,1.331a.277.277,0,0,1-.021.213l-.371.175a.122.122,0,0,1-.156-.079l-.938-1.051a1.578,1.578,0,0,0-1.226-.6,1.213,1.213,0,0,0-1.346,1.11c0,.8.586,1.035,1.755,1.343a3.6,3.6,0,0,1,1.951,1.013,2,2,0,0,1,.582,1.563c0,1.636-1.326,2.8-3.252,2.8a4.123,4.123,0,0,1-2.108-.506.531.531,0,0,1-.154-.213l-.311-1.968" fill="#1b3534"/>
      <path id="Path_7" data-name="Path 7" d="M1913.313,2099.1h-.78c-.2,0-.274-.155-.311-.508a16.346,16.346,0,0,1-.042-1.679v-2.1c0-1.619,0-2.866.042-3.177.018-.158-.042-.236-.158-.236a1.35,1.35,0,0,0-.467.119c-.334.134-2.261.817-2.534.933-.1.04-.137.079-.137.156v.218c0,.074.018.134.194.172.9.236,1.016.625,1.016,1.209v2.75c0,.543-.019,1.167-.041,1.753-.019.314-.116.391-.311.391a7.862,7.862,0,0,1-.964.027c-.831,0-1.054-.027-1.054-.027-.427,0-.464-.274-.5-.627-.04-.583-.04-2.57-.04-3.466v-2.809c0-1.071.04-5.126.08-6.177,0-.273-.08-.35-.194-.35a1.725,1.725,0,0,0-.429.116,16.521,16.521,0,0,1-2.923,1.131c-.121.037-.156.114-.156.154v.233c0,.082,0,.118.117.161l.388.113a1.189,1.189,0,0,1,.993,1.17c.039.507.079,2.182.079,3.547v6.1c0,.546-.293.7-.487.7,0,0-.293.027-1.007.027s-.994-.027-.994-.027c-.43,0-.47-.274-.508-.627-.04-.583-.04-2.57-.04-3.466v-2.809c0-1.071.04-5.126.078-6.177,0-.273-.078-.35-.193-.35a1.8,1.8,0,0,0-.43.116,16.372,16.372,0,0,1-2.923,1.131c-.119.037-.156.114-.156.154v.233c0,.082,0,.118.119.161l.387.113a1.194,1.194,0,0,1,.995,1.17c.041.507.079,2.182.079,3.547v6.1c0,.546-.292.7-.488.7h-.742c-.231,0-.272.037-.272.158v.368c0,.116.041.195.156.195.079,0,3.815-.036,7.49-.036,3.546,0,7.032.036,7.11.036.118,0,.157-.079.157-.195v-.393c0-.1-.039-.133-.2-.133" fill="#1b3534"/>
      <path id="Path_8" data-name="Path 8" d="M1888.519,2096.958c-.127-.121-.353-.321-.367-.341s-.092,0-.111.022a5.741,5.741,0,0,1-4.49,2.048,4.194,4.194,0,0,1-3.35-1.522,7.884,7.884,0,0,1-1.8-5.068c0-2.8,1.287-5.611,4.4-5.611a4.633,4.633,0,0,1,3.392,1.442,6.907,6.907,0,0,1,1.522,2.53c.058.157.118.235.213.2l.37-.118c.078-.019.1-.08.078-.2-.078-.584-.468-3.7-.468-4.049,0-.275-.037-.314-.273-.314s-.274,0-.311.12l-.158.5c-.036.155-.116.155-.387,0a8.527,8.527,0,0,0-3.937-.935,6.735,6.735,0,0,0-5.068,2.066,7.556,7.556,0,0,0-1.987,5.222,7.434,7.434,0,0,0,2.1,5.264,7.266,7.266,0,0,0,10.649-1.078.166.166,0,0,0-.028-.183" fill="#1b3534"/>
      <path id="Path_9" data-name="Path 9" d="M1912.114,2088.889a1.188,1.188,0,1,1-1.189-1.19,1.19,1.19,0,0,1,1.189,1.19" fill="#1b3534"/>
      <rect id="Rectangle_16" data-name="Rectangle 16" width="0.649" height="4.373" transform="translate(1876.613 2103.262)" fill="#1b3534"/>
      <path id="Path_10" data-name="Path 10" d="M1882.621,2107.636h-.42l-2.578-3.275v3.275h-.638v-4.372h.575l2.512,3.2v-3.2h.638v4.372h-.089" fill="#1b3534"/>
      <path id="Path_11" data-name="Path 11" d="M1885.5,2107.636v-3.758h-1.409v-.614h3.473v.614h-1.408v3.758h-.657" fill="#1b3534"/>
      <path id="Path_12" data-name="Path 12" d="M1888.947,2107.636v-4.372h3.209v.607H1889.6v1.256h2.291v.609H1889.6v1.291h2.591v.61h-3.239" fill="#1b3534"/>
      <path id="Path_13" data-name="Path 13" d="M1902.275,2107.636h-.422l-2.578-3.275v3.275h-.637v-4.372h.575l2.511,3.2v-3.2h.639v4.372h-.088" fill="#1b3534"/>
      <path id="Path_14" data-name="Path 14" d="M1907.474,2107.636l-.491-1.11h-2.169l-.5,1.11h-.68l1.991-4.4h.558l1.992,4.4h-.7m-2.4-1.712h1.64l-.819-1.835Z" fill="#1b3534"/>
      <path id="Path_15" data-name="Path 15" d="M1910.02,2107.636v-3.758h-1.408v-.614h3.472v.614h-1.407v3.759h-.657" fill="#1b3534"/>
      <rect id="Rectangle_17" data-name="Rectangle 17" width="0.65" height="4.372" transform="translate(1913.508 2103.263)" fill="#1b3534"/>
      <path id="Path_16" data-name="Path 16" d="M1925.283,2107.636h-.42l-2.578-3.274v3.274h-.637v-4.371h.573l2.512,3.2v-3.2h.637v4.371h-.087" fill="#1b3534"/>
      <path id="Path_17" data-name="Path 17" d="M1930.481,2107.636l-.491-1.109h-2.168l-.5,1.109h-.681l1.993-4.4h.558l1.991,4.4h-.7m-2.395-1.712h1.64l-.818-1.835Z" fill="#1b3534"/>
      <path id="Path_18" data-name="Path 18" d="M1932.459,2107.636v-4.372h.65v3.757h2.362v.615h-3.012" fill="#1b3534"/>
      <path id="Path_19" data-name="Path 19" d="M1895.484,2105.4h-1.2v-1.526h1.207c.655.01.979.279.985.745,0,.486-.387.775-.991.781m.572.488a1.289,1.289,0,0,0,1.073-1.286c0-.809-.652-1.339-1.6-1.34h-1.892v4.372h.65V2106h1.066l1.218,1.631h.8Z" fill="#1b3534"/>
      <path id="Path_20" data-name="Path 20" d="M1917.93,2107.093a1.582,1.582,0,0,1-1.567-1.649,1.561,1.561,0,0,1,1.555-1.638,1.581,1.581,0,0,1,1.565,1.65,1.562,1.562,0,0,1-1.553,1.637m0-3.9a2.258,2.258,0,1,0,2.221,2.252A2.222,2.222,0,0,0,1917.93,2103.192Z" fill="#1b3534"/>
    </g>
  </g>
</svg>
