<svg xmlns="http://www.w3.org/2000/svg" width="139.191" height="14.844" viewBox="0 0 139.191 14.844">
  <g id="Group_39" data-name="Group 39" transform="translate(-1766.59 -31.909)">
    <g id="Group_38" data-name="Group 38">
      <path id="Path_50" data-name="Path 50" d="M1782.092,46.455h-2.424l-3.19-10.59-3.211,10.59h-2.425l-4.252-14.248h2.381l3.127,10.739,3.274-10.739h2.191l3.275,10.739,3.125-10.739h2.4Z" fill="#fff"/>
      <path id="Path_51" data-name="Path 51" d="M1803.206,46.455h-10.612V32.207h10.591V34.27h-8.315v4.019h7.677v2.042h-7.677v4.061h8.336Z" fill="#fff"/>
      <path id="Path_52" data-name="Path 52" d="M1820.833,35.929l-2.275.468a3.093,3.093,0,0,0-3.254-2.509c-1.68,0-2.786.914-2.786,2.168,0,1,.574,1.531,1.808,1.786l3.084.66c2.126.468,3.657,1.659,3.657,3.892,0,2.678-2.19,4.359-5.465,4.359-3.02,0-5.529-1.468-5.891-4.232l2.425-.511c.34,1.83,1.765,2.722,3.678,2.722s3-.914,3-2.211c0-1.085-.574-1.6-2-1.893l-3.1-.638c-1.766-.4-3.594-1.339-3.594-3.87,0-2.51,2.062-4.211,5.231-4.211C1818.239,31.909,1820.323,33.483,1820.833,35.929Z" fill="#fff"/>
      <path id="Path_53" data-name="Path 53" d="M1833.783,34.27V46.455h-2.3V34.27h-5V32.207H1838.8V34.27Z" fill="#fff"/>
      <path id="Path_54" data-name="Path 54" d="M1865.338,46.455h-10.612V32.207h10.591V34.27H1857v4.019h7.677v2.042H1857v4.061h8.336Z" fill="#fff"/>
      <path id="Path_55" data-name="Path 55" d="M1885.326,46.455h-1.936l-8.612-10.229V46.455H1872.5V32.207h1.936l8.591,10.4v-10.4h2.3Z" fill="#fff"/>
      <path id="Path_56" data-name="Path 56" d="M1897.912,32.207c4.849,0,7.869,2.977,7.869,7.125s-3.02,7.123-7.869,7.123h-4.976V32.207Zm0,12.185c3.467,0,5.572-2.1,5.572-5.06s-2.1-5.062-5.572-5.062h-2.7V44.392Z" fill="#fff"/>
    </g>
  </g>
</svg>
