<svg xmlns="http://www.w3.org/2000/svg" width="244.942" height="206.002" viewBox="0 0 244.942 206.002">
  <g id="Group_75" data-name="Group 75" transform="translate(-597.529 -267.58)">
    <g id="Group_72" data-name="Group 72">
      <g id="Group_71" data-name="Group 71">
        <path id="Path_97" data-name="Path 97" d="M673.149,429.956,724.97,315.669l.057-.14c.218-.529,1.729-4.017,12-26.658l9.678-21.291h-5.332l-16.928,37.255c-3.978,6.915-14.6,20.15-26.318,20.747-11.777.43-18.449-5.926-25.6-12.717s-14.544-13.8-27.294-13.8a37.043,37.043,0,0,0-4.462.289L626.055,267.58H597.529Zm-30.245-126c12.076-.893,18.847,5.284,25.892,11.968l.5.479c7.486,7.106,15.237,14.489,29.028,13.963,6.137-.312,12.47-3.3,18.478-8.675l-32.457,71.633Z" fill="#fff"/>
        <path id="Path_98" data-name="Path 98" d="M768.911,429.956l51.822-114.287.057-.14c.218-.529,1.728-4.017,12-26.658l9.678-21.291h-5.333l-16.927,37.255c-3.978,6.915-14.6,20.15-26.318,20.747-11.777.43-18.449-5.926-25.6-12.717s-14.544-13.8-27.294-13.8a37.059,37.059,0,0,0-4.463.289L721.817,267.58H693.292Zm-30.244-126c12.076-.893,18.846,5.284,25.892,11.968l.5.479c7.486,7.106,15.236,14.489,29.028,13.963,6.137-.312,12.47-3.3,18.478-8.675l-32.457,71.633Z" fill="#fff"/>
      </g>
    </g>
    <g id="Group_74" data-name="Group 74">
      <g id="Group_73" data-name="Group 73">
        <path id="Path_99" data-name="Path 99" d="M662.785,473.267h-2.564l-3.375-11.2-3.4,11.2h-2.564l-4.5-15.07h2.519l3.307,11.358,3.463-11.358h2.317l3.464,11.358,3.306-11.358h2.542Z" fill="#fff"/>
        <path id="Path_100" data-name="Path 100" d="M685.117,473.267H673.893V458.2h11.2v2.182H676.3v4.251h8.12v2.159H676.3v4.3h8.817Z" fill="#fff"/>
        <path id="Path_101" data-name="Path 101" d="M703.762,462.133l-2.407.495a3.272,3.272,0,0,0-3.441-2.654c-1.777,0-2.947.967-2.947,2.294,0,1.057.607,1.619,1.912,1.889l3.262.7c2.249.494,3.868,1.755,3.868,4.116,0,2.834-2.317,4.611-5.78,4.611-3.194,0-5.848-1.552-6.231-4.476l2.564-.54c.36,1.935,1.868,2.879,3.891,2.879s3.173-.967,3.173-2.339c0-1.148-.608-1.687-2.115-2l-3.284-.675c-1.867-.428-3.8-1.417-3.8-4.093,0-2.655,2.181-4.454,5.533-4.454C701.018,457.882,703.223,459.546,703.762,462.133Z" fill="#fff"/>
        <path id="Path_102" data-name="Path 102" d="M717.459,460.379v12.888h-2.43V460.379h-5.285V458.2h13.023v2.182Z" fill="#fff"/>
        <path id="Path_103" data-name="Path 103" d="M750.835,473.267H739.611V458.2h11.2v2.182h-8.795v4.251h8.12v2.159h-8.12v4.3h8.817Z" fill="#fff"/>
        <path id="Path_104" data-name="Path 104" d="M771.977,473.267h-2.048l-9.109-10.82v10.82h-2.407V458.2h2.048l9.087,11v-11h2.429Z" fill="#fff"/>
        <path id="Path_105" data-name="Path 105" d="M785.29,458.2c5.128,0,8.322,3.149,8.322,7.535s-3.194,7.535-8.322,7.535h-5.264V458.2Zm0,12.888c3.667,0,5.893-2.226,5.893-5.353s-2.226-5.353-5.893-5.353h-2.856v10.706Z" fill="#fff"/>
      </g>
    </g>
  </g>
</svg>
